<?xml version="1.0" encoding="utf-8"?>
<!-- Generator: Adobe Illustrator 26.2.1, SVG Export Plug-In . SVG Version: 6.00 Build 0)  -->
<svg version="1.1" id="Capa_1" xmlns="http://www.w3.org/2000/svg" xmlns:xlink="http://www.w3.org/1999/xlink" x="0px" y="0px"
	 viewBox="0 0 58.3 58.3" style="enable-background:new 0 0 58.3 58.3;" xml:space="preserve">
<style type="text/css">
	.st0{fill:#FFFFFF;stroke:#FFFFFF;stroke-miterlimit:10;}
	.st1{fill:#010002;stroke:#FFFFFF;stroke-miterlimit:10;}
</style>
<g>
	<g>
		<circle class="st0" cx="19.3" cy="10" r="3.9"/>
		<path class="st0" d="M55.8,43.5v-2.2c0-0.5-0.4-0.9-0.9-0.9H40.8l-5.6-15.6c-0.1-0.3-0.4-0.6-0.8-0.6l-4.8-0.7
			c0.3-0.9,0.1-2-1-2.7c-2.7-1.4-5.3-2.8-8-4.3c-1.2-3.4-7.4-2.9-7.8,1.6c-0.3,4-1.8,7.9-4.5,11c-0.9,1-1.2,2.2-1,3.3
			c-1.5,5.3-4.2,9.9-7,14.6c-1.5,2.6,2.5,5,4,2.4c2.5-4.3,5.1-8.7,6.7-13.4c0.2,0,0.4,0,0.6,0c1.7,1.2,3.1,2.7,3.6,4.8
			c0.6,2.6-1.5,5.4-3,7.2c-1.9,2.3,1.4,5.6,3.3,3.3c2.6-3.2,4.9-7,4.3-11.3c-0.5-3-2.2-5.3-4.5-7.2c2.5-3.4,4.1-7.1,4.9-11.2
			c2,1.1,4,2.1,5.9,3.2c0.5,0.3,1.1,0.3,1.6,0.2l5.8,0.8l5.6,15.5v2c-1.4,0.4-2.5,1.7-2.5,3.3c0,1.9,1.5,3.4,3.4,3.4
			c1.9,0,3.4-1.5,3.4-3.4c0-0.4-0.1-0.8-0.2-1.1h8.2c-0.1,0.4-0.2,0.7-0.2,1.1c0,1.9,1.5,3.4,3.4,3.4c1.9,0,3.4-1.5,3.4-3.4
			C58.3,45.3,57.3,44,55.8,43.5z"/>
		<path class="st0" d="M27.3,32.1c0.4,0.2,0.7,0.4,1,0.7c0.3,0.3,0.7,0.5,1,0.8c-0.2-0.4-0.5-0.7-0.8-1s-0.7-0.6-1-0.8
			c-0.4-0.2-0.9-0.3-1.3-0.3c-0.5,0.1-0.9,0.4-1,0.8c0.3-0.3,0.7-0.5,1.1-0.5C26.5,31.8,26.9,31.9,27.3,32.1z"/>
		<path class="st1" d="M22.1,36.2c0,0.2-0.1,0.4-0.2,0.6c-0.1,0.2-0.2,0.4-0.4,0.5c-0.2,0.2-0.4,0.3-0.6,0.4c0.3,0,0.5,0,0.8-0.2
			c0.2-0.1,0.4-0.3,0.6-0.6c0.2-0.5,0.2-1.1-0.1-1.5C22.1,35.7,22.1,36,22.1,36.2z"/>
		<path class="st1" d="M34.8,43.2c0.4,0,0.7-0.2,1-0.4c0.1-0.1,0.3-0.2,0.4-0.4c0.1-0.1,0.2-0.3,0.3-0.5c-0.4,0.1-0.7,0.3-1,0.5
			C35.3,42.7,35,42.9,34.8,43.2z"/>
		<path class="st1" d="M27.9,37.3c-0.8-0.5-1.7-0.8-2.6-0.7c0.9,0.3,1.6,0.6,2.4,1.1c0.8,0.4,1.5,1,2.2,1.5
			C29.4,38.4,28.7,37.8,27.9,37.3z"/>
		<path class="st1" d="M27.2,44c-0.2-0.1-0.4-0.2-0.6-0.2c0,0.1,0.1,0.2,0.2,0.3c0.1,0.1,0.2,0.2,0.2,0.2c0.1,0.1,0.2,0.1,0.3,0.1
			c0.1,0,0.2,0.1,0.3,0.1c0-0.1-0.1-0.2-0.2-0.3C27.4,44.1,27.3,44,27.2,44z"/>
		<path class="st1" d="M33.3,38c0,0.1-0.1,0.2-0.1,0.3c0,0.1,0,0.2,0,0.3c0,0.1,0,0.2,0.1,0.3c0.1-0.1,0.2-0.2,0.2-0.3
			c0-0.1,0.1-0.2,0.1-0.3c0-0.2,0-0.4-0.1-0.7C33.4,37.8,33.4,37.9,33.3,38z"/>
	</g>
</g>
</svg>
